<svg width="208" height="36" viewBox="0 0 208 36" fill="none" xmlns="http://www.w3.org/2000/svg">
<g clip-path="url(#clip0_329_52391)">
<path d="M94.0563 9L88.1418 29H82.4006L79.5413 18.3426L76.6557 29H70.9145L65 9H71.9128L74.418 19.6272L77.2848 9H81.7715L84.627 19.6272L87.1699 9H94.0563Z" fill="#020202"/>
<path d="M103.049 9V29H96.6443V9H103.049Z" fill="#020202"/>
<path d="M122.856 23.1119V29H106.202V24.1403L113.8 14.8843H106.458V9H122.344V13.8973L114.727 23.1119H122.856Z" fill="#020202"/>
<path d="M140.084 23.628V29H125.998V9H139.828V14.372H132.433V16.5984H138.912V21.2283H132.433V23.628H140.084Z" fill="#020202"/>
<path d="M157.398 23.1119V29H143.516V9H149.943V23.1119H157.398Z" fill="#020202"/>
<path d="M166.97 9V29H160.543V9H166.97Z" fill="#020202"/>
<path d="M189.483 9V29H183.685L177.398 18.8851V29H170.971V9H176.772L183.056 19.1149V9H189.483Z" fill="#020202"/>
<path d="M207.569 23.628V29H193.487V9H207.313V14.372H199.914V16.5984H206.398V21.2283H199.914V23.628H207.569Z" fill="#020202"/>
</g>
<g clip-path="url(#clip1_329_52391)">
<path d="M50.4297 0H41.5921C40.8527 0.000203208 40.128 0.206203 39.4991 0.594937C38.8701 0.983671 38.3618 1.53979 38.031 2.20105L37.1202 4.00135C37.3331 3.99664 37.5436 4.04703 37.7313 4.14764C37.919 4.24825 38.0775 4.39567 38.1915 4.57559C38.3054 4.75551 38.3709 4.96182 38.3816 5.17451C38.3923 5.3872 38.3479 5.59905 38.2526 5.78951L27.132 28.0003L29.752 33.2403C30.1149 33.9813 30.6576 34.6195 31.3306 35.0968C32.0035 35.5741 32.7853 35.8752 33.6046 35.9727C34.5881 36.0775 35.5802 35.8797 36.4482 35.4055C37.3163 34.9314 38.0189 34.2035 38.4621 33.3193L53.0163 4.20779C53.2372 3.76554 53.3417 3.27429 53.3199 2.78043C53.2982 2.28657 53.1509 1.80641 52.892 1.38528C52.6332 0.964149 52.2712 0.615952 51.8404 0.373569C51.4095 0.131186 50.924 0.00261602 50.4297 0Z" fill="url(#paint0_linear_329_52391)"/>
<path d="M35.1317 7.59187e-07H30.1983C29.278 -0.000508013 28.3756 0.254709 27.5919 0.737177C26.8081 1.21964 26.1738 1.91039 25.7598 2.73233L20.1282 14.0047C20.0358 14.1902 19.8935 14.3462 19.7173 14.4553C19.5412 14.5643 19.3381 14.6221 19.1309 14.6221C18.9237 14.6221 18.7206 14.5643 18.5444 14.4553C18.3682 14.3462 18.2259 14.1902 18.1336 14.0047L13.5797 4.92124C13.4409 4.64617 13.2281 4.41524 12.9654 4.25436C12.7026 4.09348 12.4002 4.00902 12.0921 4.01046H1.41169C1.17261 4.01111 0.937639 4.07259 0.728887 4.18912C0.520135 4.30565 0.344476 4.47339 0.21845 4.67655C0.0924238 4.87971 0.0201774 5.11161 0.00851363 5.3504C-0.00315019 5.58919 0.0461523 5.82702 0.151779 6.04149L13.7892 33.3193C14.1932 34.1244 14.8133 34.8013 15.5799 35.2743C16.3466 35.7474 17.2297 35.9979 18.1305 35.9979C19.0314 35.9979 19.9145 35.7474 20.6811 35.2743C21.4478 34.8013 22.0678 34.1244 22.4719 33.3193L37.1324 4.00135L38.0432 2.20105C38.373 1.54164 38.8795 0.986731 39.5061 0.598122C40.1327 0.209513 40.8548 0.00245336 41.5922 7.59187e-07H35.1317Z" fill="#E93D44"/>
<path d="M41.4343 34.8223H41.1307V34.71H41.8957V34.8223H41.5921V35.7331H41.4586L41.4343 34.8223Z" fill="#E93D44"/>
<path d="M42.849 35.2807C42.849 35.138 42.849 34.9771 42.849 34.8405C42.8126 34.9589 42.7701 35.0864 42.7215 35.2261L42.5394 35.7209H42.4422L42.2752 35.2352C42.2297 35.0925 42.1872 34.9619 42.1599 34.8405C42.1599 34.968 42.1599 35.1441 42.1386 35.2898L42.1113 35.727H41.9868L42.0566 34.71H42.1993L42.3724 35.2018C42.4117 35.3143 42.4451 35.4288 42.4726 35.5448C42.5017 35.4286 42.5371 35.3141 42.5788 35.2018L42.761 34.71H42.928L42.9917 35.727H42.8642L42.849 35.2807Z" fill="#E93D44"/>
</g>
<defs>
<linearGradient id="paint0_linear_329_52391" x1="58.4749" y1="65.3119" x2="35.4262" y2="1.98853" gradientUnits="userSpaceOnUse">
<stop offset="0.55" stop-color="#E93D44"/>
<stop offset="1" stop-color="#701D21"/>
</linearGradient>
<clipPath id="clip0_329_52391">
<rect width="142.569" height="20" fill="white" transform="translate(65 9)"/>
</clipPath>
<clipPath id="clip1_329_52391">
<rect width="53.3382" height="36" fill="white"/>
</clipPath>
</defs>
</svg>
